<?xml version="1.0" encoding="UTF-8" standalone="no"?>
<svg width="60px" height="60px" viewBox="0 0 60 60" version="1.1" xmlns="http://www.w3.org/2000/svg" xmlns:xlink="http://www.w3.org/1999/xlink" xmlns:sketch="http://www.bohemiancoding.com/sketch/ns">
    <!-- Generator: Sketch 3.2.2 (9983) - http://www.bohemiancoding.com/sketch -->
    <title>Train</title>
    <desc>Created with Sketch.</desc>
    <defs></defs>
    <g id="stroked" stroke="none" stroke-width="1" fill="none" fill-rule="evenodd" sketch:type="MSPage">
        <g id="Transport" sketch:type="MSLayerGroup" transform="translate(-839.000000, -358.000000)" stroke="#535353" stroke-width="2" stroke-linecap="round" stroke-linejoin="round">
            <g id="Train" transform="translate(848.000000, 359.000000)" sketch:type="MSShapeGroup">
                <path d="M14,12 L10.0167145,12 C6.6882755,12 4,14.6983964 4,18.027037 L4,49 L39,49 L39,18.027037 C39,14.6907526 36.3062252,12 32.9832855,12 L29,12 L29,7.50930309 C29,3.35308225 25.6421356,0 21.5,0 C17.3662928,0 14,3.36202951 14,7.50930309 L14,12 Z" id="Rectangle-1726"></path>
                <circle id="Oval-1501" cx="21.5" cy="7.5" r="3.5"></circle>
                <rect id="Rectangle-1728" x="8" y="18" width="27" height="13"></rect>
                <rect id="Rectangle-1729" x="9" y="38" width="4" height="7" rx="11"></rect>
                <rect id="Rectangle-1729" x="30" y="38" width="4" height="7" rx="11"></rect>
                <path d="M14,21 L11,24" id="Line-367"></path>
                <path d="M7.02059178,49.120232 L0.341394635,57.1595218" id="Path-3814"></path>
                <path d="M43.0205918,49.120232 L36.3413946,57.1595218" id="Path-3815" transform="translate(39.680993, 53.139877) scale(-1, 1) translate(-39.680993, -53.139877) "></path>
            </g>
        </g>
    </g>
</svg>