<?xml version="1.0" encoding="UTF-8" standalone="no"?>
<svg width="60px" height="60px" viewBox="0 0 60 60" version="1.1" xmlns="http://www.w3.org/2000/svg" xmlns:xlink="http://www.w3.org/1999/xlink" xmlns:sketch="http://www.bohemiancoding.com/sketch/ns">
    <!-- Generator: Sketch 3.2.2 (9983) - http://www.bohemiancoding.com/sketch -->
    <title>Transportboat</title>
    <desc>Created with Sketch.</desc>
    <defs></defs>
    <g id="stroked" stroke="none" stroke-width="1" fill="none" fill-rule="evenodd" sketch:type="MSPage">
        <g id="Transport" sketch:type="MSLayerGroup" transform="translate(-239.000000, -358.000000)" stroke="#535353" stroke-width="2" stroke-linejoin="round">
            <g id="Transportboat" transform="translate(245.000000, 361.000000)" sketch:type="MSShapeGroup">
                <path d="M0,46 C0,49.3137085 2.6862915,52 6,52 C9.3137085,52 12,49.3137085 12,46" id="Oval-1496" stroke-linecap="round"></path>
                <path d="M24,46 C24,49.3137085 26.6862915,52 30,52 C33.3137085,52 36,49.3137085 36,46" id="Oval-1493" stroke-linecap="round"></path>
                <path d="M12,46 C12,49.3137085 14.6862915,52 18,52 C21.3137085,52 24,49.3137085 24,46" id="Oval-1494" stroke-linecap="round"></path>
                <path d="M36,46 C36,49.3137085 38.6862915,52 42,52 C45.3137085,52 48,49.3137085 48,46" id="Oval-1495" stroke-linecap="round"></path>
                <path d="M28.5,31.5336702 L31,22.7181153 L18,17 L5,22.7181153 L7.5,31.5336702 L7.5,43 L28.5,43 L28.5,31.5336702 Z" id="Rectangle-1711" stroke-linecap="round"></path>
                <path d="M7.5,21 L7.5,10 L28.5,10 L28.5,21" id="Rectangle-1713" stroke-linecap="round"></path>
                <path d="M11.5,10 L11.5,3 L24.5,3 L24.5,10" id="Rectangle-1713" stroke-linecap="round"></path>
                <path d="M14.5,3 L14.5,0" id="Line" stroke-linecap="square"></path>
            </g>
        </g>
    </g>
</svg>